<svg width="20" height="20" viewBox="0 0 20 20" fill="none" xmlns="http://www.w3.org/2000/svg">
<path d="M8.10689 0H6.12651L5.13634 1.72928L3.48603 4.61142L2.49586 6.3407L2.42549 6.46356L1.56797 7.96122L3.05323 8.82586L4.30717 9.55581L0.7636 17.581L0 19.3103H12.7459L11.854 17.581L10.1244 14.2273L11.0517 12.1271L11.3874 11.367C11.7643 11.4703 12.1592 11.5286 12.5682 11.5286C14.8959 11.5286 16.8192 9.76465 17.1019 7.49357H20V2.90127e-05H8.10689V0ZM12.5682 9.79928C12.4078 9.79928 12.2518 9.78225 12.0987 9.75621L13.0978 7.49357H15.369C15.1034 8.80742 13.9486 9.79928 12.5682 9.79928ZM18.285 5.76429H11.984L11.7295 6.34072L11.2204 7.49359L10.3137 9.54711L9.56231 11.2487L9.11297 12.2663L8.22131 14.2856L9.23274 16.2467L9.92091 17.5811H2.64091L5.80063 10.4253L6.50203 8.83672L5.00857 7.96741L3.91077 7.32823L4.47623 6.34072L5.4664 4.61145L7.11671 1.7293H18.285V5.76429Z" fill="#00DEFF"/>
</svg>
