<svg width="17" height="20" viewBox="0 0 17 20" fill="none" xmlns="http://www.w3.org/2000/svg">
<path d="M8.27586 0L15.9228 2.52C16.1059 2.58032 16.2653 2.69611 16.3782 2.85095C16.491 3.0058 16.5518 3.19185 16.5517 3.38273V10C16.5517 13.6818 13.7931 17.0155 8.27586 20C2.75862 17.0155 0 13.6818 0 10V3.38182C0.000146478 3.1911 0.0609621 3.00525 0.173839 2.85059C0.286716 2.69592 0.445937 2.58027 0.628966 2.52L8.27586 0ZM8.27586 1.91636L1.83908 4.03818V10L1.84552 10.27C1.91264 11.6155 2.48184 12.8891 3.49149 14.11C4.5977 15.4455 6.20046 16.7027 8.27586 17.91C10.3522 16.7027 11.954 15.4445 13.0593 14.11C14.137 12.8091 14.7126 11.4464 14.7126 10V4.03818L8.27586 1.91636Z" fill="#FECF06"/>
</svg>
