<svg width="17" height="20" viewBox="0 0 17 20" fill="none" xmlns="http://www.w3.org/2000/svg">
<path d="M5.83849 20H2.3676C1.85678 20 1.38388 19.7457 1.10059 19.3197C0.819527 18.8936 0.770452 18.3582 0.971211 17.8876L4.10081 10.571H1.51772C0.973441 10.571 0.469315 10.2788 0.199406 9.80593C-0.0705025 9.33527 -0.0660411 8.75084 0.210559 8.2824L4.65401 0.747268C4.92392 0.287754 5.42582 0 5.96117 0H15.2897C15.834 0 16.3382 0.292215 16.6081 0.765113C16.878 1.23801 16.8735 1.82021 16.5969 2.28865L12.9052 8.55008H13.938C14.5469 8.55008 15.0957 8.91367 15.3344 9.47357C15.573 10.0357 15.4548 10.6803 15.031 11.1198L6.93151 19.5338C6.64598 19.8305 6.24893 20 5.83849 20ZM3.12602 17.9813H5.62658L12.7624 10.5666H12.0308C11.4865 10.5666 10.9824 10.2744 10.7125 9.80147C10.4425 9.32858 10.447 8.74638 10.7236 8.27794L14.4153 2.01874H6.2467L2.39437 8.55008H4.85923C5.37005 8.55008 5.84518 8.80437 6.12624 9.23266C6.4073 9.65871 6.45638 10.1941 6.25562 10.6647L3.12602 17.9813ZM13.938 10.5688H13.9424H13.938Z" fill="#20CA8D"/>
</svg>
