<svg width="380" height="169" viewBox="0 0 380 169" fill="none" xmlns="http://www.w3.org/2000/svg">
<g filter="url(#filter0_d_505:4)">
<path d="M301.251 68.049L301.251 68.0489C301.278 67.9964 301.314 67.9632 301.362 67.9429C301.412 67.9214 301.485 67.9108 301.585 67.9226L301.251 68.049ZM301.251 68.049L301.249 68.0527M301.251 68.049L301.249 68.0527M301.249 68.0527C301.19 68.164 300.937 68.7553 300.534 69.7225M301.249 68.0527L300.534 69.7225M296.162 99.6422L296.162 99.6424C296.017 99.9948 295.868 100.337 295.747 100.602C295.687 100.735 295.634 100.848 295.592 100.933C295.56 100.999 295.537 101.042 295.523 101.065C295.52 101.067 295.514 101.069 295.508 101.071C295.478 101.08 295.432 101.091 295.363 101.101C295.226 101.121 295.018 101.136 294.716 101.148C294.113 101.17 293.151 101.174 291.666 101.16C291.666 101.16 291.666 101.16 291.666 101.16L291.655 101.16C289.777 101.139 288.83 101.128 288.346 101.087C288.096 101.066 287.999 101.038 287.961 101.016C287.954 101.012 287.952 101.01 287.952 101.01L287.952 101.01C287.952 101.01 287.952 101.01 287.952 101.01L296.162 99.6422ZM296.162 99.6422L296.689 98.3652L296.728 98.2719M296.162 99.6422L296.728 98.2719M296.728 98.2719L296.829 98.2724M296.728 98.2719L296.829 98.2724M296.829 98.2724L301.548 98.3002L301.549 98.3002M296.829 98.2724L301.549 98.3002M301.549 98.3002L306.268 98.3419L306.367 98.3427M301.549 98.3002L306.367 98.3427M306.367 98.3427L306.405 98.4338M306.367 98.3427L306.405 98.4338M306.405 98.4338L306.988 99.8218L306.989 99.823M306.405 98.4338L306.989 99.823M306.989 99.823L307.52 101.118M306.989 99.823L307.52 101.118M300.534 69.7225C300.134 70.6838 299.591 72.0052 298.953 73.5649M300.534 69.7225L298.953 73.5649M298.953 73.5649C297.678 76.6844 296.026 80.7564 294.39 84.806M298.953 73.5649L294.39 84.806M294.39 84.806C292.755 88.8556 291.137 92.8826 289.929 95.9118M294.39 84.806L289.929 95.9118M289.929 95.9118C289.325 97.4264 288.824 98.6914 288.475 99.5849M289.929 95.9118L288.475 99.5849M288.475 99.5849C288.3 100.032 288.164 100.385 288.071 100.63M288.475 99.5849L288.071 100.63M288.071 100.63C288.025 100.753 287.99 100.848 287.967 100.913M288.071 100.63L287.967 100.913M287.967 100.913C287.957 100.944 287.949 100.966 287.944 100.982M287.967 100.913L287.944 100.982M287.944 100.982C287.947 100.999 287.95 101.005 287.951 101.009C287.951 101.009 287.952 101.009 287.952 101.01L287.944 100.982ZM307.52 101.118H311.292C312.959 101.118 313.922 101.111 314.485 101.08C314.767 101.065 314.939 101.043 315.044 101.017C315.091 101.005 315.12 100.994 315.137 100.985C315.13 100.951 315.117 100.901 315.097 100.835C315.052 100.686 314.977 100.465 314.868 100.162C314.649 99.5575 314.294 98.6352 313.779 97.3288C312.749 94.7166 311.076 90.5739 308.557 84.3761C305.364 76.5466 303.678 72.4222 302.747 70.2497C302.281 69.1618 302.007 68.5695 301.828 68.2472C301.739 68.085 301.679 68.0015 301.637 67.9584C301.604 67.9241 301.591 67.923 301.586 67.9226C301.586 67.9226 301.586 67.9226 301.585 67.9226L307.52 101.118ZM302.533 88.8564L302.533 88.8566L303.282 90.6611L303.366 90.8626L303.148 90.8685L301.621 90.9102V90.9102L301.619 90.9102C301.195 90.9172 300.806 90.9207 300.518 90.9189C300.374 90.918 300.254 90.9159 300.168 90.912C300.125 90.9102 300.088 90.9078 300.059 90.9046C300.045 90.903 300.03 90.9009 300.015 90.8977C300.008 90.8962 299.998 90.8936 299.987 90.8894L299.986 90.8894C299.979 90.8867 299.953 90.8768 299.928 90.8524C299.892 90.8156 299.885 90.7725 299.884 90.762C299.882 90.7454 299.882 90.7311 299.883 90.7227C299.884 90.705 299.887 90.6872 299.891 90.6725C299.897 90.6418 299.908 90.6026 299.921 90.5582C299.949 90.4682 299.991 90.3436 300.044 90.1945C300.151 89.8957 300.304 89.4914 300.478 89.0531L300.478 89.0531L300.479 89.0512C300.84 88.1751 301.186 87.3186 301.253 87.1285L301.253 87.1284L301.257 87.1199C301.3 87.0193 301.35 86.9273 301.402 86.8699C301.416 86.8546 301.433 86.8376 301.455 86.8233C301.476 86.8097 301.51 86.7924 301.554 86.7909C301.603 86.7893 301.648 86.8085 301.68 86.8401C301.707 86.8659 301.721 86.8955 301.73 86.9181C301.765 87.0059 302.121 87.8695 302.533 88.8564Z" fill="white" stroke="#FECF06" stroke-width="0.3"/>
<path d="M99.8754 40.3557L99.8761 40.3556C101.948 40.1208 106.823 40.0792 108.965 40.2726C118.028 41.1028 126.496 44.4787 133.663 50.1517L133.663 50.1518C134.482 50.7987 135.851 52.0707 137.173 53.3801C138.163 54.3612 139.121 55.3577 139.796 56.1223C133.485 50.2773 126.4 46.7684 118.137 45.4026M99.8754 40.3557L82.3972 110.999C80.2457 108.833 78.8715 107.14 77.2891 104.724L77.1637 104.807C77.1637 104.807 77.1636 104.807 77.1636 104.807C76.6673 104.052 75.9639 102.826 75.3993 101.776C75.1168 101.251 74.8679 100.768 74.6962 100.409C74.6105 100.23 74.5428 100.078 74.4997 99.9666C74.4784 99.9115 74.4612 99.8613 74.4514 99.8201C74.4466 99.8002 74.4419 99.7757 74.4414 99.7506V99.7503C74.4411 99.7366 74.4398 99.6791 74.4818 99.6303C74.4996 99.6091 74.5191 99.5973 74.5298 99.5916C74.5442 99.5838 74.5576 99.5793 74.5667 99.5766C74.5851 99.5712 74.6037 99.5684 74.6186 99.5666C74.6495 99.563 74.6878 99.5615 74.7297 99.5611C74.8146 99.5604 74.9307 99.5646 75.068 99.5724C75.3435 99.5882 75.7137 99.6197 76.1107 99.6615C83.1677 100.369 87.2837 100.48 96.7597 100.216L96.7597 100.216C104.864 99.9939 110.008 99.6471 114.58 99.0235L114.581 99.0235C115.257 98.9329 115.82 98.856 116.272 98.7912C115.888 98.7978 115.424 98.8086 114.882 98.8224C109.369 98.9751 94.6377 98.9197 91.0651 98.739L91.0647 98.739C85.0661 98.4196 78.9136 97.9335 74.19 97.3778L74.1886 97.3777L73.4251 97.2805L73.3306 97.2685L73.3013 97.1778L72.871 95.8452L72.8709 95.8448C70.4046 88.1255 70.3905 80.001 72.8432 72.3779C78.8495 53.6765 98.3001 42.1012 118.137 45.4026M99.8754 40.3557C93.4821 41.0476 87.5468 42.9293 82.0542 46.0146L81.9808 45.8838M99.8754 40.3557L81.9808 45.8838M118.137 45.4026L118.112 45.5506M118.137 45.4026C118.137 45.4026 118.137 45.4027 118.137 45.4027L118.112 45.5506M118.112 45.5506C126.51 46.9387 133.687 50.5477 140.072 56.5859L140.585 57.0714L118.112 45.5506ZM81.9808 45.8838L82.0542 46.0146C72.9092 51.1474 65.7432 59.4485 62.1607 69.0477C59.5326 76.1021 58.8133 83.7238 60.0582 91.1381L60.0583 91.1383M81.9808 45.8838L60.0583 91.1383M60.0583 91.1383C60.2387 92.2207 60.4876 93.4917 60.6105 93.9562C60.6739 94.1955 60.7232 94.4175 60.7551 94.5841C60.771 94.6672 60.7829 94.7379 60.7899 94.7908C60.7934 94.8169 60.796 94.8411 60.7971 94.8611C60.7974 94.8666 60.7977 94.8726 60.7977 94.879C60.7978 94.8841 60.7977 94.8893 60.7974 94.8947L60.7974 94.8954C60.7972 94.9015 60.7959 94.9325 60.7801 94.964L60.7693 94.9857M60.0583 91.1383L60.7693 94.9857M60.7693 94.9857L60.7521 95.0029M60.7693 94.9857L60.7521 95.0029M60.7521 95.0029C60.7204 95.0345 60.6843 95.0437 60.672 95.0466C60.6554 95.0504 60.6402 95.0516 60.6294 95.052C60.6075 95.0528 60.5836 95.0512 60.561 95.0489C60.5148 95.0442 60.4541 95.0344 60.383 95.0209C60.2397 94.9939 60.0407 94.9496 59.8021 94.8925C59.3241 94.7781 58.6797 94.6106 57.9866 94.4222C56.6018 94.0456 55.0155 93.5831 54.1704 93.2897M60.7521 95.0029L48.0169 90.2521L48.017 90.2521C48.5515 90.6869 49.5467 91.2587 50.6723 91.8128C51.8011 92.3685 53.0736 92.9125 54.1704 93.2897M54.1704 93.2897L54.2192 93.1479L54.17 93.2896C54.1701 93.2896 54.1703 93.2897 54.1704 93.2897ZM50.0294 83.1781C49.9916 83.2102 49.9381 83.252 49.8705 83.3019C49.8561 83.3125 49.8413 83.3234 49.8258 83.3345M50.0294 83.1781L50.0828 83.3284C50.0698 83.3281 50.0552 83.328 50.039 83.328C49.982 83.3282 49.9103 83.3304 49.8258 83.3345M50.0294 83.1781C49.3357 83.1823 46.8338 83.46 45.8907 83.6534L50.0294 83.1781ZM49.8258 83.3345C49.7733 83.3371 49.7159 83.3404 49.6541 83.3444C49.3322 83.3653 48.8994 83.4045 48.4346 83.4538C47.5032 83.5527 46.4545 83.6909 45.9208 83.8004M49.8258 83.3345C49.6608 83.4539 49.436 83.6048 49.1843 83.7622C49.1843 83.7622 49.1842 83.7622 49.1842 83.7622L49.2637 83.8894L45.9208 83.8004M45.9208 83.8004C42.8549 84.4357 41.2179 85.407 40.3887 86.9975C40.2358 87.304 40.1517 87.7301 40.15 88.1739C40.1484 88.6178 40.2291 89.0629 40.3908 89.4055L40.3908 89.4055L40.3917 89.4075C40.7021 90.0911 41.3614 90.7959 42.3576 91.5028C43.3517 92.2081 44.6693 92.9072 46.2785 93.5839C49.4967 94.9373 53.8655 96.1945 59.1066 97.2344L59.1074 97.2346C59.7877 97.3734 60.4126 97.5019 60.8677 97.5974C61.0951 97.6451 61.2806 97.6847 61.4094 97.7133C61.4736 97.7276 61.5248 97.7394 61.5603 97.7481C61.5777 97.7524 61.5933 97.7564 61.6053 97.76C61.6108 97.7616 61.6191 97.7641 61.6275 97.7674C61.6309 97.7688 61.6404 97.7725 61.6512 97.7789C61.656 97.7817 61.668 97.789 61.6807 97.8014C61.6838 97.8045 61.6916 97.8122 61.6998 97.8243C61.7033 97.8293 61.7054 97.8329 61.7059 97.8337L61.7059 97.8338C61.7086 97.8384 61.7107 97.8424 61.712 97.8448C61.7146 97.8499 61.717 97.8552 61.719 97.8597C61.7232 97.8689 61.7283 97.8809 61.7341 97.8948C61.7458 97.9227 61.7618 97.9623 61.7816 98.0118C61.8213 98.1111 61.877 98.2525 61.9447 98.4251C62.0059 98.5814 62.0781 98.7662 62.1576 98.9694C62.252 99.211 62.3566 99.4787 62.4651 99.7557C67.7904 113.27 79.923 123.522 94.4647 126.787C102.047 128.489 109.796 128.296 117.337 126.234L117.377 126.379L117.337 126.234C122.151 124.92 127.479 122.387 131.504 119.51C134.52 117.352 137.856 114.279 139.901 111.792L139.901 111.792C139.916 111.773 139.93 111.755 139.945 111.738C138.215 113.411 137.28 114.202 135.51 115.479C129.727 119.659 122.595 122.333 115.323 123.016L115.322 123.016C112.771 123.253 107.484 123.114 105.138 122.737C97.909 121.581 91.4306 118.753 85.7747 114.309L45.9208 83.8004ZM50.1083 83.3077C50.1316 83.2884 50.1513 83.2712 50.167 83.2564C50.2022 83.223 50.2171 83.2017 50.2076 83.1954C50.1965 83.1842 50.1455 83.1788 50.0623 83.1781C50.0598 83.1928 50.0588 83.2139 50.0654 83.2383C50.0722 83.263 50.0851 83.2844 50.1017 83.3013C50.1038 83.3035 50.106 83.3056 50.1083 83.3077Z" fill="white" stroke="#FECF06" stroke-width="0.3"/>
<path d="M137.699 68.3116L137.699 68.3115C140.135 68.0775 143.221 68.4502 145.294 69.2187C145.56 69.3209 145.813 69.4362 146.006 69.5401C146.103 69.5922 146.181 69.6399 146.237 69.6802C146.265 69.7003 146.285 69.7169 146.298 69.7295C146.3 69.7314 146.301 69.733 146.303 69.7344C146.303 69.7458 146.304 69.7617 146.304 69.7829C146.304 69.8367 146.301 69.913 146.295 70.0105C146.284 70.2049 146.261 70.4744 146.23 70.7958C146.167 71.4383 146.071 72.2827 145.965 73.1374C145.859 73.992 145.744 74.8557 145.643 75.5365C145.593 75.8771 145.546 76.1709 145.506 76.3946C145.465 76.6255 145.433 76.7652 145.415 76.8111L145.414 76.8136L145.414 76.8136C145.4 76.8514 145.385 76.8643 145.371 76.8712C145.352 76.8803 145.314 76.8899 145.238 76.8799C145.082 76.8593 144.839 76.7665 144.471 76.5791L144.471 76.5789C143.706 76.193 143.048 75.9411 142.304 75.7885C141.562 75.6363 140.742 75.5842 139.655 75.5911C139.655 75.5911 139.655 75.5911 139.655 75.5911L139.656 75.7411L137.699 68.3116ZM137.699 68.3116C132.88 68.7659 128.963 70.8977 126.214 74.5679C122.984 78.884 122.059 85.3281 123.891 90.7818L123.891 90.7821M137.699 68.3116L123.891 90.7821M123.891 90.7821C124.33 92.1007 125.046 93.5325 125.886 94.7999L125.886 94.7999M123.891 90.7821L125.886 94.7999M125.886 94.7999C127.286 96.9131 130.122 99.2669 132.467 100.227L132.468 100.227M125.886 94.7999L132.468 100.227M132.468 100.227C136.266 101.81 141.142 102.002 145.036 100.709M132.468 100.227L145.335 92.9547L145.339 92.9561C145.377 92.9693 145.391 92.9751 145.403 92.9821C145.41 92.9864 145.418 92.9929 145.431 93.0119C145.461 93.0603 145.5 93.1655 145.55 93.4167C145.65 93.9103 145.781 94.8784 146.045 96.8322C146.088 97.1538 146.128 97.445 146.164 97.7094C146.237 98.238 146.295 98.659 146.332 98.9996C146.387 99.5156 146.391 99.8185 146.337 100.015C146.311 100.109 146.274 100.175 146.223 100.228C146.172 100.283 146.1 100.331 145.997 100.379C145.854 100.446 145.674 100.504 145.437 100.579C145.318 100.617 145.185 100.659 145.036 100.709M145.036 100.709C145.036 100.709 145.035 100.709 145.035 100.709L145.083 100.852L145.036 100.709C145.036 100.709 145.036 100.709 145.036 100.709Z" fill="white" stroke="#FECF06" stroke-width="0.3"/>
<path d="M233.16 68.4502L233.16 68.4502C235.159 68.2174 237.982 68.5871 240.606 69.4295L240.607 69.4298C240.959 69.5401 241.286 69.6537 241.529 69.7462C241.651 69.7925 241.75 69.833 241.82 69.8646C241.841 69.8737 241.858 69.8818 241.872 69.8887C241.872 69.8952 241.872 69.9024 241.872 69.9102C241.871 69.9669 241.867 70.0476 241.859 70.1503C241.844 70.3551 241.817 70.639 241.78 70.9767C241.706 71.6515 241.596 72.5355 241.477 73.4188C241.358 74.3021 241.231 75.1836 241.125 75.8532C241.071 76.1883 241.023 76.469 240.984 76.6701C240.964 76.7709 240.947 76.8496 240.933 76.9043C240.929 76.9205 240.925 76.9337 240.922 76.9442C240.913 76.9464 240.9 76.9488 240.88 76.9499C240.827 76.9529 240.746 76.9458 240.624 76.9215C240.383 76.8733 240.02 76.7652 239.479 76.5847C239.479 76.5847 239.478 76.5846 239.478 76.5845L239.431 76.7268L233.16 68.4502ZM233.16 68.4502C230.606 68.7385 228.498 69.7083 226.96 71.2207C225.422 72.7329 224.446 74.7957 224.172 77.2846L224.172 77.2854M233.16 68.4502L224.172 77.2854M224.172 77.2854C223.884 79.7814 224.323 81.7001 225.547 83.4278L225.548 83.428M224.172 77.2854L225.548 83.428M225.548 83.428C227.022 85.5164 228.738 86.6827 233.06 88.4281C235.324 89.339 235.779 89.5593 236.265 90.0889C237.354 91.2387 237.162 93.0532 235.851 93.9517L235.851 93.9518M225.548 83.428L235.851 93.9518M235.851 93.9518C235.546 94.1603 235.079 94.3426 234.572 94.473C234.062 94.6039 233.498 94.6859 232.99 94.6859C230.762 94.6859 227.459 93.6193 225.11 92.1507C225.028 92.0996 224.964 92.064 224.91 92.0433C224.857 92.0225 224.828 92.0221 224.813 92.0252C224.792 92.0294 224.727 92.0581 224.645 92.2947C224.568 92.5186 224.493 92.8747 224.406 93.4174C224.32 93.9575 224.224 94.6727 224.102 95.6097M235.851 93.9518L224.102 95.6097M224.102 95.6097C224.041 96.1014 223.982 96.5769 223.928 97.0141C223.779 98.2093 223.666 99.1188 223.647 99.2914C223.649 99.2944 223.651 99.2987 223.656 99.3043C223.671 99.3254 223.698 99.3542 223.742 99.3904C223.829 99.4626 223.962 99.5486 224.139 99.6452C224.49 99.8377 224.989 100.061 225.576 100.288C226.75 100.744 228.255 101.213 229.579 101.496C230.828 101.757 231.455 101.812 233.35 101.798L233.35 101.798C234.701 101.791 235.625 101.732 236.469 101.552C237.311 101.371 238.079 101.068 239.115 100.564C239.667 100.295 240.036 100.088 240.388 99.8272C240.741 99.5655 241.081 99.2462 241.573 98.7475L241.573 98.7473C242.847 97.4598 243.527 96.3025 243.978 94.6355L243.978 94.6346C244.132 94.0787 244.222 93.0163 244.236 91.9538C244.25 90.8896 244.187 89.8617 244.048 89.3715L244.047 89.3706C243.558 87.6052 242.042 85.5778 240.288 84.3308L240.287 84.3305C239.275 83.6054 236.72 82.3198 234.53 81.4326L234.53 81.4325C233.335 80.9464 232.549 80.5274 232.064 80.0312C231.567 79.5235 231.396 78.9468 231.396 78.1843C231.396 77.723 231.503 77.3183 231.734 76.9687C231.963 76.6205 232.309 76.3378 232.769 76.1074L224.102 95.6097ZM241.912 69.9109C241.912 69.9108 241.912 69.9107 241.912 69.9106L241.912 69.9109Z" fill="white" stroke="#FECF06" stroke-width="0.3"/>
<path d="M151.944 68.7054C152.003 68.6938 152.096 68.6824 152.234 68.672C152.516 68.6507 152.965 68.6351 153.632 68.6247C154.967 68.6039 157.165 68.6039 160.643 68.6178L151.944 68.7054ZM151.944 68.7054C151.944 68.7087 151.944 68.7122 151.944 68.7157C151.941 68.7766 151.939 68.8652 151.937 68.9807C151.933 69.2114 151.929 69.5463 151.925 69.9744C151.918 70.8305 151.913 72.0573 151.91 73.5641C151.903 76.5778 151.903 80.7106 151.91 85.2356L151.951 101.535H160.616H169.282L169.322 98.1572L151.944 68.7054ZM166.311 88.5135C166.299 88.5353 166.29 88.5473 166.281 88.5563C166.271 88.5653 166.256 88.5765 166.226 88.5887C166.16 88.6155 166.039 88.6398 165.798 88.657C165.321 88.6913 164.443 88.6948 162.767 88.6948H159.227H159.077V88.8448V91.5516V94.2583V94.4083H159.227H164.211C166.238 94.4083 167.488 94.4188 168.246 94.4481C168.626 94.4628 168.877 94.4822 169.039 94.5063C169.121 94.5184 169.174 94.5309 169.208 94.5424C169.218 94.546 169.226 94.5491 169.23 94.5513C169.233 94.5574 169.236 94.5673 169.239 94.5823C169.249 94.6204 169.259 94.6762 169.268 94.7529C169.286 94.9058 169.301 95.1273 169.311 95.4261C169.332 96.0228 169.335 96.9152 169.322 98.1571L166.311 88.5135ZM166.311 88.5135C166.313 88.5097 166.319 88.4888 166.327 88.4388C166.336 88.3865 166.345 88.3155 166.353 88.2259C166.37 88.047 166.384 87.8019 166.396 87.4993C166.42 86.8948 166.434 86.0675 166.434 85.097C166.434 84.1265 166.42 83.2993 166.396 82.6947C166.384 82.3922 166.37 82.147 166.353 81.9681C166.345 81.8785 166.336 81.8076 166.327 81.7553C166.319 81.7073 166.313 81.6862 166.312 81.6811L166.311 88.5135ZM159.077 81.4992H159.227H162.767C164.443 81.4992 165.321 81.5028 165.798 81.537C166.039 81.5543 166.16 81.5785 166.226 81.6054C166.256 81.6175 166.271 81.6287 166.281 81.6377C166.29 81.6467 166.299 81.6587 166.311 81.6805C166.312 81.6822 166.313 81.684 166.314 81.6858L159.077 81.4992ZM159.077 81.4992V81.3492M159.077 81.4992V81.3492M159.077 81.3492V78.6424V75.9357V75.7857M159.077 81.3492V75.7857M159.077 75.7857H159.227M159.077 75.7857H159.227M159.227 75.7857H164.211C166.238 75.7857 167.488 75.7753 168.246 75.7459C168.626 75.7312 168.877 75.7119 169.039 75.6878C169.121 75.6757 169.174 75.6631 169.208 75.6516C169.218 75.648 169.226 75.6449 169.23 75.6427M159.227 75.7857L169.23 75.6427M169.23 75.6427C169.233 75.6366 169.236 75.6267 169.239 75.6117C169.249 75.5736 169.259 75.5178 169.268 75.4411C169.286 75.2882 169.301 75.0668 169.311 74.768C169.332 74.1712 169.335 73.2788 169.322 72.037L169.23 75.6427ZM169.282 68.6588L160.643 68.6178L169.322 72.0369L169.282 68.6588ZM151.892 68.7188C151.888 68.7205 151.89 68.7205 151.894 68.7183C151.893 68.7185 151.893 68.7187 151.892 68.7188Z" fill="white" stroke="#FECF06" stroke-width="0.3"/>
<path d="M175.82 68.6872C175.838 68.682 175.864 68.6762 175.898 68.6703C176.015 68.6504 176.202 68.635 176.483 68.6247C177.045 68.604 177.958 68.6039 179.381 68.6178L182.884 68.6578L182.925 81.3773L182.925 81.3774L182.952 94.2587L182.953 94.4083H183.102H189.127C191.591 94.4083 193.102 94.4153 194.012 94.443C194.467 94.4568 194.767 94.4758 194.959 94.5008C195.056 94.5133 195.119 94.5267 195.159 94.5394C195.173 94.5438 195.182 94.5475 195.187 94.55C195.189 94.5559 195.193 94.5661 195.197 94.5823C195.206 94.6204 195.216 94.6762 195.225 94.7529C195.243 94.9058 195.258 95.1273 195.268 95.4261C195.289 96.0228 195.293 96.9152 195.279 98.1571L175.82 68.6872ZM175.82 68.6872C175.819 68.6957 175.819 68.7052 175.819 68.7157C175.816 68.7766 175.814 68.8652 175.812 68.9807C175.808 69.2114 175.804 69.5463 175.8 69.9744C175.793 70.8305 175.788 72.0573 175.785 73.5641C175.778 76.5778 175.778 80.7106 175.785 85.2356L175.826 101.535H185.532H195.239L195.279 98.1572L175.82 68.6872ZM175.784 68.7004C175.784 68.7004 175.785 68.7 175.787 68.699C175.785 68.6999 175.784 68.7004 175.784 68.7004Z" fill="white" stroke="#FECF06" stroke-width="0.3"/>
<path d="M201.359 68.7098C201.359 68.7117 201.359 68.7137 201.359 68.7157C201.357 68.7766 201.355 68.8652 201.352 68.9807C201.348 69.2114 201.344 69.5463 201.341 69.9744C201.334 70.8305 201.329 72.0573 201.325 73.5641C201.318 76.5778 201.318 80.7106 201.325 85.2356L201.366 101.535H210.031H218.697L218.737 98.1572L201.359 68.7098ZM201.359 68.7098C201.42 68.6987 201.516 68.6877 201.654 68.6775C201.94 68.6563 202.391 68.6395 203.059 68.6265C204.393 68.6005 206.582 68.5901 210.017 68.5901C213.932 68.5901 216.113 68.597 217.325 68.6282C217.933 68.6438 218.29 68.6654 218.5 68.6941C218.604 68.7083 218.661 68.7231 218.692 68.7353C218.694 68.7495 218.696 68.7673 218.698 68.789C218.702 68.846 218.707 68.9243 218.712 69.0222C218.722 69.2178 218.731 69.487 218.739 69.8109C218.754 70.4585 218.765 71.3213 218.765 72.2434C218.765 73.458 218.754 74.3051 218.729 74.8634C218.716 75.143 218.699 75.3462 218.679 75.4854C218.668 75.5552 218.658 75.6047 218.648 75.6379C218.645 75.646 218.643 75.6523 218.641 75.6572C218.633 75.6597 218.622 75.6628 218.608 75.6661C218.561 75.6772 218.492 75.6882 218.394 75.6987C218.2 75.7196 217.911 75.7363 217.508 75.7493C216.702 75.7753 215.452 75.7857 213.612 75.7857H208.643H208.493V75.9357V78.6424V81.3492V81.498L208.642 81.4992L212.222 81.5269L212.223 81.527L215.642 81.5669V85.097V88.6272L212.223 88.6671L212.222 88.6671L208.642 88.6948L208.493 88.696V88.8448V91.5516V94.2583V94.4083H208.643H213.626C215.653 94.4083 216.903 94.4188 217.661 94.4481C218.041 94.4628 218.293 94.4822 218.455 94.5063C218.536 94.5184 218.59 94.5309 218.623 94.5424C218.634 94.546 218.641 94.5491 218.646 94.5513C218.648 94.5574 218.651 94.5673 218.655 94.5823C218.665 94.6204 218.674 94.6762 218.683 94.7529C218.702 94.9058 218.716 95.1273 218.727 95.4261C218.747 96.0228 218.751 96.9152 218.737 98.1571L201.359 68.7098Z" fill="white" stroke="#FECF06" stroke-width="0.3"/>
<path d="M247.493 68.6781C247.487 68.6971 247.48 68.7243 247.473 68.7621C247.452 68.878 247.434 69.0615 247.42 69.3327C247.392 69.8732 247.382 70.7371 247.382 72.0492C247.382 72.9991 247.392 73.8828 247.408 74.5442C247.416 74.8751 247.425 75.1495 247.434 75.3486C247.439 75.4483 247.444 75.5279 247.449 75.5857C247.452 75.6148 247.454 75.637 247.456 75.6529C247.456 75.6556 247.457 75.6579 247.457 75.6599C247.466 75.6654 247.485 75.6749 247.525 75.6857C247.618 75.7111 247.779 75.7323 248.061 75.7479C248.62 75.7788 249.604 75.7858 251.341 75.7858H255.283H255.433V75.9358V88.7617C255.433 92.8355 255.447 96.0517 255.471 98.2562C255.483 99.3586 255.498 100.207 255.515 100.783C255.523 101.072 255.532 101.291 255.541 101.438C255.544 101.484 255.547 101.522 255.55 101.552C255.601 101.557 255.67 101.561 255.755 101.565C255.946 101.575 256.216 101.584 256.544 101.592C257.201 101.608 258.088 101.618 259.044 101.618L259.045 101.618C260.434 101.625 261.311 101.618 261.851 101.59C262.122 101.577 262.301 101.558 262.415 101.535C262.464 101.525 262.495 101.516 262.515 101.508C262.516 101.503 262.516 101.497 262.517 101.491C262.521 101.444 262.525 101.376 262.529 101.285C262.537 101.105 262.545 100.844 262.552 100.51C262.567 99.8422 262.581 98.8878 262.592 97.7168C262.615 95.3751 262.628 92.1691 262.628 88.6645V75.9358V75.7858H262.778H266.721C268.457 75.7858 269.442 75.7788 270 75.7479C270.282 75.7323 270.443 75.7111 270.536 75.6857C270.576 75.6749 270.595 75.6654 270.604 75.6599C270.604 75.6579 270.605 75.6556 270.605 75.6529C270.607 75.637 270.61 75.6148 270.612 75.5857C270.617 75.5279 270.622 75.4483 270.627 75.3486C270.636 75.1495 270.646 74.8751 270.653 74.5442C270.669 73.8828 270.679 72.9991 270.679 72.0492C270.679 70.5412 270.672 69.6827 270.641 69.1922C270.626 68.945 270.605 68.8041 270.58 68.7237C270.571 68.6916 270.562 68.6752 270.557 68.6677C270.546 68.6667 270.53 68.6656 270.51 68.6644C270.461 68.6617 270.391 68.659 270.302 68.6563C270.122 68.6511 269.866 68.6462 269.543 68.6416C268.898 68.6325 267.99 68.625 266.906 68.619C264.739 68.6071 261.872 68.6015 259.005 68.6023C256.138 68.6032 253.271 68.6106 251.106 68.6247C250.023 68.6317 249.116 68.6405 248.472 68.6509C248.15 68.6561 247.895 68.6617 247.716 68.6678C247.627 68.6708 247.558 68.6739 247.51 68.677C247.504 68.6774 247.498 68.6778 247.493 68.6781ZM247.504 68.649C247.505 68.6473 247.506 68.6463 247.506 68.6462C247.506 68.6461 247.505 68.6469 247.504 68.649ZM270.573 68.6694C270.574 68.6695 270.574 68.6695 270.574 68.6696C270.575 68.6696 270.575 68.6696 270.574 68.6694C270.574 68.6694 270.573 68.6694 270.573 68.6694ZM270.61 75.6546C270.61 75.6545 270.609 75.6554 270.608 75.6575C270.61 75.6557 270.611 75.6546 270.61 75.6546ZM247.454 75.6575C247.452 75.6554 247.451 75.6545 247.451 75.6546C247.451 75.6546 247.451 75.6557 247.454 75.6575Z" fill="white" stroke="#FECF06" stroke-width="0.3"/>
<path d="M276.245 68.6485C276.168 68.6532 276.105 68.6581 276.058 68.6629C276.054 68.7265 276.051 68.8179 276.047 68.9363C276.039 69.1836 276.031 69.5432 276.025 69.9997C276.012 70.9124 276.001 72.2092 275.994 73.7623C275.978 76.8683 275.973 80.998 275.978 85.1265C275.982 89.255 275.995 93.3821 276.017 96.483C276.027 98.0335 276.039 99.3271 276.054 100.236C276.061 100.69 276.068 101.048 276.076 101.293C276.08 101.404 276.083 101.491 276.087 101.553C276.137 101.557 276.203 101.561 276.285 101.565C276.476 101.575 276.746 101.584 277.075 101.592C277.733 101.608 278.624 101.618 279.588 101.618L279.588 101.618C280.984 101.625 281.858 101.618 282.394 101.59C282.663 101.577 282.841 101.558 282.955 101.535C283.004 101.525 283.036 101.515 283.057 101.507C283.058 101.496 283.059 101.482 283.06 101.467C283.064 101.402 283.068 101.306 283.071 101.183C283.079 100.935 283.087 100.578 283.093 100.125C283.107 99.2199 283.119 97.9375 283.129 96.403C283.149 93.3339 283.162 89.2576 283.166 85.1768C283.171 81.096 283.167 77.011 283.154 73.9246C283.148 72.3814 283.139 71.0881 283.128 70.1699C283.123 69.7108 283.117 69.346 283.11 69.0908C283.107 68.9631 283.103 68.8638 283.1 68.7943C283.098 68.7593 283.096 68.7332 283.095 68.7152C283.095 68.7146 283.095 68.714 283.094 68.7133C283.086 68.7083 283.069 68.6994 283.035 68.6895C282.952 68.6648 282.805 68.6437 282.549 68.6281C282.041 68.5972 281.151 68.5902 279.588 68.5902C278.603 68.5902 277.699 68.6006 277.036 68.6179C276.704 68.6266 276.434 68.6369 276.245 68.6485Z" fill="white" stroke="#FECF06" stroke-width="0.3"/>
<path d="M320.179 68.7075C320.179 68.7101 320.179 68.7129 320.179 68.7157C320.177 68.7766 320.174 68.8652 320.172 68.9807C320.168 69.2114 320.164 69.5463 320.161 69.9745C320.154 70.8305 320.148 72.0573 320.145 73.5642C320.138 76.5778 320.138 80.7106 320.145 85.2356L320.186 101.535H329.892H339.599L339.639 98.1572L320.179 68.7075ZM320.179 68.7075C320.226 68.6976 320.292 68.6875 320.379 68.6777C320.572 68.6558 320.846 68.637 321.178 68.6218C321.84 68.5913 322.719 68.5753 323.604 68.5744C324.489 68.5736 325.379 68.5879 326.062 68.6179C326.403 68.6329 326.691 68.6518 326.9 68.6743C327.005 68.6857 327.086 68.6976 327.144 68.7096C327.156 68.7123 327.167 68.7149 327.176 68.7172C327.181 68.7406 327.185 68.7728 327.19 68.8151C327.203 68.9245 327.214 69.0881 327.225 69.3151C327.246 69.7683 327.263 70.4637 327.276 71.4611C327.302 73.4553 327.313 76.6505 327.313 81.5158V94.2583V94.4083H327.463H333.487C335.952 94.4083 337.462 94.4153 338.372 94.443C338.828 94.4568 339.128 94.4758 339.32 94.5008C339.416 94.5133 339.479 94.5267 339.519 94.5394C339.533 94.5438 339.542 94.5475 339.547 94.55C339.549 94.5559 339.553 94.5661 339.557 94.5823C339.566 94.6204 339.576 94.6762 339.585 94.7529C339.604 94.9058 339.618 95.1273 339.629 95.4261C339.649 96.0228 339.653 96.9152 339.639 98.1571L320.179 68.7075Z" fill="white" stroke="#FECF06" stroke-width="0.3"/>
</g>
<defs>
<filter id="filter0_d_505:4" x="0" y="0" width="379.797" height="168.086" filterUnits="userSpaceOnUse" color-interpolation-filters="sRGB">
<feFlood flood-opacity="0" result="BackgroundImageFix"/>
<feColorMatrix in="SourceAlpha" type="matrix" values="0 0 0 0 0 0 0 0 0 0 0 0 0 0 0 0 0 0 127 0" result="hardAlpha"/>
<feOffset/>
<feGaussianBlur stdDeviation="20"/>
<feComposite in2="hardAlpha" operator="out"/>
<feColorMatrix type="matrix" values="0 0 0 0 0.996078 0 0 0 0 0.811765 0 0 0 0 0.0235294 0 0 0 1 0"/>
<feBlend mode="normal" in2="BackgroundImageFix" result="effect1_dropShadow_505:4"/>
<feBlend mode="normal" in="SourceGraphic" in2="effect1_dropShadow_505:4" result="shape"/>
</filter>
</defs>
</svg>
