<svg width="22" height="22" viewBox="0 0 22 22" fill="none" xmlns="http://www.w3.org/2000/svg">
<path d="M21.4705 0.000116495C21.1683 -0.00519181 20.7637 0.170546 20.3317 0.602445L14.4251 6.50904C14.4251 6.50871 14.4253 6.50833 14.4253 6.50796L11.596 9.33724L11.5965 9.33771L10.9986 9.93557L10.9982 9.9351L9.93382 10.9995L9.93429 11L9.34991 11.5843L9.34944 11.5839L7.89863 13.0347C7.89863 13.0349 7.89872 13.0352 7.89882 13.0353L5.28431 15.6498L6.34724 16.7128L21.3946 1.66537C22.2791 0.781048 22.0894 0.011015 21.4706 0.000163535L21.4705 0.000116495ZM0.52666 0.00293513C-0.0922973 0.0138336 -0.28194 0.78382 0.60248 1.66824L9.33591 10.4017L10.4003 9.33719L8.32564 7.26272C8.32564 7.26366 8.32564 7.26451 8.32555 7.26545L1.66536 0.60531C1.23356 0.173365 0.828905 -0.0023262 0.52666 0.00293513V0.00293513ZM11.5444 1.7124C11.1071 3.69197 10.9513 5.43826 10.2327 7.41784C9.21631 6.62441 8.79413 5.46974 8.17344 4.43889C8.20097 4.94999 8.25142 5.48439 8.28712 6.02847L10.9981 8.73947L14.685 5.05254C14.7474 4.71972 14.8113 4.38717 14.8766 4.05491C13.8774 5.40764 12.8824 6.1538 11.5227 7.50648C11.2055 5.37292 11.5358 3.84596 11.5443 1.71244L11.5444 1.7124ZM3.10203 6.98927C3.09959 6.98942 3.09828 6.99007 3.09818 6.99134C3.08606 7.23797 8.00376 10.6723 7.61832 10.9175C6.98579 11.3192 4.89488 12.3789 3.69544 13.0274C4.62181 12.8703 6.21045 12.6547 7.08618 12.6515L8.75162 10.9861L5.76135 7.99593C4.49173 7.51602 3.18166 6.98274 3.10203 6.98923V6.98927ZM14.6179 9.6267L13.2516 10.9931L15.8904 13.6317C16.4 13.6662 16.9094 13.6982 17.4171 13.6889C16.2654 12.942 14.0353 11.6345 14.0518 11.3134C14.0683 10.9899 17.0322 10.3168 18.5388 9.8287C17.2335 9.72831 15.9094 10.0094 14.6179 9.6267V9.6267ZM12.6537 11.5909L11.5894 12.6552L15.6499 16.7157L16.7128 15.6528L14.6236 13.5635H14.6265L12.6537 11.5909H12.6537ZM11.0049 13.2396L8.29426 15.9503C8.31343 16.6177 8.30413 17.287 8.26983 17.8472C8.8017 16.5864 9.10817 15.411 10.4226 14.3487C11.1011 14.9118 11.5884 16.2403 12.1713 17.1861C12.1285 16.2916 11.8484 14.7433 11.935 14.1696L11.0048 13.2396L11.0049 13.2396ZM4.22133 15.6498L3.62352 16.2477L5.74947 18.3737L6.34724 17.7757L4.22148 15.6498H4.22138H4.22133ZM17.7757 15.6527L15.6499 17.7785V17.7786L16.2477 18.3764L18.3737 16.2505L17.7757 15.6527V15.6527ZM3.39094 17.0782L2.92587 17.5433L4.45387 19.0712L4.91893 18.6061L3.39094 17.0782V17.0782ZM18.6062 17.081L17.0782 18.609L17.5433 19.0741L19.0712 17.5461L18.6061 17.081H18.6062ZM2.32801 18.1412L0.00287637 20.4662L1.53092 21.9942L2.029 21.4961L2.53306 21.9999L3.37144 21.1615L2.86748 20.6576L3.85595 19.6691L3.39089 19.2041L1.56399 21.031L0.966075 20.4331L2.79298 18.6061L2.32791 18.1411L2.32801 18.1412ZM19.6693 18.144L19.2042 18.6091L21.0311 20.436L20.4331 21.0339L18.6062 19.207L18.1412 19.672L20.4663 21.9971L21.9942 20.469L21.4961 19.9709L22 19.4669L21.1615 18.6285L20.6577 19.1325L19.6692 18.144H19.6693Z" fill="#FECF06"/>
</svg>
