<svg width="38" height="38" viewBox="0 0 38 38" fill="none" xmlns="http://www.w3.org/2000/svg">
<path d="M15.6825 38.0002V34.3812C6.81586 33.778 0 29.3145 0 24.1875C0 21.1113 2.35238 18.2764 6.39364 16.4066L7.23808 15.9844V20.2066L7.05713 20.3875C6.33332 20.9907 6.03173 21.5336 6.03173 22.1971C6.03173 24.4288 10.1333 26.5399 15.6825 27.1431V23.6447L25.7555 30.8224L15.6825 38.0002ZM6.03173 17.8542C2.95555 19.4828 1.20635 21.7748 1.20635 24.1272C1.20635 28.7113 7.96189 32.7526 16.346 33.1748H16.8888V35.5875L23.7047 30.7018L16.8888 25.8764V28.3494L16.2254 28.2891C9.4095 27.7463 4.82539 25.2129 4.82539 22.1367C4.82539 21.232 5.18729 20.3875 6.03173 19.6034V17.8542ZM24.7904 27.7463L24.6698 26.5399C28.4698 26.2383 31.9682 24.1875 31.9682 22.3177C31.9682 21.8352 31.7872 21.2923 31.4856 20.8098L32.511 20.1463C32.9936 20.8701 33.2348 21.5939 33.2348 22.3177C33.1745 24.9113 29.4349 27.324 24.7904 27.7463Z" fill="#00DEFF"/>
<path d="M31.6061 30.7017L31.1235 29.616C34.7426 27.9271 36.7934 25.5144 36.7934 22.9208C36.7934 20.87 35.3457 19.0002 32.4505 17.4319L33.0537 16.3462C36.3711 18.1557 37.9997 20.3875 37.9997 22.9208C37.9997 25.997 35.6473 28.8319 31.6061 30.7017Z" fill="#00DEFF" fill-opacity="0.5"/>
<path d="M15.6826 30.1587H16.889V31.365H15.6826V30.1587ZM18.0953 30.1587H19.3017V31.365H18.0953V30.1587Z" fill="#00DEFF"/>
<path d="M8 6L17.5 0L32 3.5L22.5 9.5L8 6Z" fill="#55E9FF"/>
<path d="M8 19V6L22.5 9.5V23.5L8 19Z" fill="url(#paint0_linear_1039_25)"/>
<path d="M22.5 23.5V9.5L32 3.5L31.5 17L22.5 23.5Z" fill="url(#paint1_linear_1039_25)"/>
<defs>
<linearGradient id="paint0_linear_1039_25" x1="15.25" y1="6" x2="15.25" y2="23.5" gradientUnits="userSpaceOnUse">
<stop stop-color="#00DEFF"/>
<stop offset="1" stop-color="#00DEFF" stop-opacity="0"/>
</linearGradient>
<linearGradient id="paint1_linear_1039_25" x1="27.25" y1="3.5" x2="27.25" y2="23.5" gradientUnits="userSpaceOnUse">
<stop stop-color="#00B0CA"/>
<stop offset="1" stop-color="#00B0CA" stop-opacity="0"/>
</linearGradient>
</defs>
</svg>
