<svg width="957" height="311" viewBox="0 0 957 311" fill="none" xmlns="http://www.w3.org/2000/svg">
<path d="M380.3 39.5V38.7C380.3 16 396.8 0 419.4 0C442.2 0 458.5 15.4 458.5 38.2V39.1C458.5 61.7 443 78.2 419.3 78.2C395.5 78.2 380.3 61.7 380.3 39.5ZM440.5 39.3V38.4C440.5 23.6 432.6 13.5 419.4 13.5C406.2 13.5 398.3 23.2 398.3 38.5V39.4C398.3 54.9 407.2 64.5 419.7 64.5C432.4 64.5 440.5 54.6 440.5 39.3Z" fill="white" fill-opacity="0.8"/>
<path d="M469.9 1.09961H483.8C484.7 1.09961 485.5 1.79961 485.5 2.79961V33.8996L511.6 1.79961C511.9 1.39961 512.4 1.19961 512.9 1.19961H528C528.9 1.19961 529.4 2.29961 528.8 2.99961L500.2 36.9996L530.3 75.2996C530.9 75.9996 530.4 77.0996 529.4 77.0996H512.4C511.9 77.0996 511.4 76.8996 511.1 76.4996L485.4 42.9996V75.3996C485.4 76.2996 484.7 77.0996 483.7 77.0996H469.8C468.9 77.0996 468.1 76.3996 468.1 75.3996V2.69961C468.2 1.79961 469 1.09961 469.9 1.09961Z" fill="white" fill-opacity="0.8"/>
<path d="M559.5 37.6L538.7 2.6C538.2 1.7 538.8 0.5 539.9 0.5H556C556.5 0.5 556.9 0.8 557.2 1.2L570.2 23.8H570.9L583.9 1.2C584.1 0.8 584.6 0.5 585.1 0.5H601.3C602.4 0.5 603 1.7 602.5 2.6L581.5 37.6L603.6 74.5C604.2 75.4 603.5 76.6 602.4 76.6H585.9C585.4 76.6 584.9 76.3 584.7 75.9L571 51.1H570.3L556.5 75.9C556.3 76.3 555.8 76.6 555.3 76.6H538.9C537.8 76.6 537.2 75.4 537.7 74.5L559.5 37.6Z" fill="white" fill-opacity="0.8"/>
<path d="M380.3 121.2C380.3 120.3 381 119.5 382 119.5H410.2C426.8 119.5 435.4 126.3 435.4 139.3V139.7C435.4 147.7 431.6 153.5 423.1 156C433 158 438.3 163.6 438.3 173.8V174.2C438.3 188.1 429.2 195.4 411.6 195.4H382C381.1 195.4 380.3 194.7 380.3 193.7V121.2ZM407.4 150.8C415.7 150.8 419 147.8 419 141V140.6C419 134.2 415.4 131.4 407.3 131.4H398.2C397.6 131.4 397.1 131.9 397.1 132.5V149.7C397.1 150.3 397.6 150.8 398.2 150.8H407.4ZM408.8 183.7C417.3 183.7 421.1 179.9 421.1 173V172.6C421.1 165.6 417.3 162 407.9 162H398.1C397.5 162 397 162.5 397 163.1V182.7C397 183.3 397.5 183.8 398.1 183.8H408.8V183.7Z" fill="white" fill-opacity="0.8"/>
<path d="M448.3 114.801H460.3C461.2 114.801 462 115.501 462 116.501V193.901C462 194.801 461.3 195.601 460.3 195.601H448.3C447.4 195.601 446.6 194.901 446.6 193.901V116.501C446.7 115.601 447.4 114.801 448.3 114.801Z" fill="white" fill-opacity="0.8"/>
<path d="M469.9 168.399V167.499C469.9 150.099 482.5 138.699 499.2 138.699C515.9 138.699 528.4 149.899 528.4 167.199V168.099C528.4 185.599 515.8 196.799 499.1 196.799C482.6 196.699 469.9 185.699 469.9 168.399ZM512.9 168.099V167.399C512.9 156.799 507.9 150.399 499.3 150.399C490.8 150.399 485.7 156.599 485.7 167.199V168.099C485.7 178.699 490.6 185.099 499.3 185.099C507.9 184.999 512.9 178.699 512.9 168.099Z" fill="white" fill-opacity="0.8"/>
<path d="M532.7 168.499V167.599C532.7 149.599 545.6 138.699 561.4 138.699C573.7 138.699 585.2 143.899 587.3 158.399C587.4 159.399 586.7 160.299 585.7 160.299H573.9C573.4 160.299 572.9 159.899 572.8 159.399C571.5 153.499 567.7 150.799 561.7 150.799C553.7 150.799 548.4 156.699 548.4 167.399V168.199C548.4 179.399 553.4 185.099 562 185.099C567.9 185.099 572.7 181.799 573.8 175.299C573.9 174.799 574.3 174.399 574.9 174.399H586C587 174.399 587.8 175.299 587.6 176.299C586 188.499 576.6 196.799 561.2 196.799C545.1 196.699 532.7 186.599 532.7 168.499Z" fill="white" fill-opacity="0.8"/>
<path d="M596.5 114.801H608.6C609.5 114.801 610.3 115.501 610.3 116.501V161.001C610.3 161.801 611.3 162.101 611.8 161.501L627.8 140.401C628 140.101 628.3 140.001 628.7 140.001H642.2C643.1 140.001 643.6 141.101 643.1 141.801L624.3 165.301L644.8 193.801C645.3 194.501 644.8 195.601 643.9 195.601H629.2C628.8 195.601 628.5 195.401 628.3 195.101L611.8 171.501C611.3 170.801 610.3 171.201 610.3 172.001V194.001C610.3 194.901 609.6 195.701 608.6 195.701H596.5C595.6 195.701 594.8 195.001 594.8 194.001V116.601C594.9 115.601 595.6 114.801 596.5 114.801Z" fill="white" fill-opacity="0.8"/>
<path d="M645.7 168.6V167.8C645.7 149.5 656.2 138.8 670.1 138.8C678.6 138.8 684 142.3 687.1 147.5C687.2 147.7 687.6 147.6 687.6 147.4V116.6C687.6 115.7 688.3 114.9 689.3 114.9H701.3C702.2 114.9 703 115.6 703 116.6V194C703 194.9 702.3 195.7 701.3 195.7H689.3C688.4 195.7 687.6 195 687.6 194V187.5C687.6 187.2 687.2 187.1 687.1 187.4C684 192.6 677.5 196.9 669.8 196.9C656.3 196.7 645.7 187.1 645.7 168.6ZM688.1 168V167.1C688.1 156.1 683.2 150.4 674.8 150.4C666.2 150.4 661.4 156.2 661.4 167.3V168.1C661.4 179.1 666.7 184.6 674.4 184.6C682.4 184.7 688.1 179.3 688.1 168Z" fill="white" fill-opacity="0.8"/>
<path d="M715.6 139.999H727.7C728.6 139.999 729.4 140.699 729.4 141.699V150.699C732.7 143.799 737.6 139.899 745.6 139.299C746.6 139.199 747.4 139.999 747.4 140.999V151.999C747.4 152.899 746.7 153.599 745.8 153.699C735.4 153.999 729.5 157.799 729.5 167.899V194.099C729.5 194.999 728.8 195.799 727.8 195.799H715.7C714.8 195.799 714 195.099 714 194.099V141.899C714 140.699 714.7 139.999 715.6 139.999Z" fill="white" fill-opacity="0.8"/>
<path d="M750.4 168.499V167.599C750.4 150.099 762.8 138.699 779 138.699C793.3 138.699 806.1 147.099 806.1 166.999V169.599C806.1 170.499 805.4 171.299 804.4 171.299H767.2C766.5 171.299 766 171.899 766.1 172.499C766.9 180.999 771.8 185.799 779.8 185.799C786.3 185.799 789.8 183.199 791.1 179.199C791.3 178.499 792 178.099 792.7 178.099H804C805.1 178.099 805.9 179.099 805.6 180.199C803.1 190.899 793.7 196.799 779.4 196.799C762.6 196.699 750.4 186.199 750.4 168.499ZM789.9 161.799C790.6 161.799 791.1 161.199 791 160.599C790.1 152.999 786 149.399 779 149.399C772.5 149.399 768 153.499 766.5 160.499C766.4 161.199 766.9 161.799 767.6 161.799H789.9Z" fill="white" fill-opacity="0.8"/>
<path d="M810.5 180.099C810.5 167.099 822.4 162.299 839.4 162.299H845.4C845.6 162.299 845.7 162.199 845.7 161.999V159.999C845.7 153.399 843.7 149.799 836.7 149.799C831.2 149.799 828.4 152.299 827.5 156.399C827.3 157.099 826.7 157.699 825.9 157.699H814.6C813.6 157.699 812.8 156.799 813 155.799C814.8 143.999 824.8 138.699 837.8 138.699C851.4 138.699 861.1 144.199 861.1 159.299V193.899C861.1 194.799 860.4 195.599 859.4 195.599H847.7C846.8 195.599 846 194.899 846 193.899V188.899C842.8 193.399 837.9 196.799 829.2 196.799C819 196.699 810.5 191.799 810.5 180.099ZM845.6 176.099V171.699C845.6 171.499 845.5 171.399 845.3 171.399H839.6C830.7 171.399 825.5 173.299 825.5 179.299C825.5 183.299 827.9 185.999 833.6 185.999C840.4 185.999 845.6 182.299 845.6 176.099Z" fill="white" fill-opacity="0.8"/>
<path d="M873 140H885.1C886 140 886.8 140.7 886.8 141.7V147.5C886.8 147.8 887.2 147.9 887.3 147.6C890.2 142.8 896 138.7 903.8 138.7C911 138.7 916.4 141.6 919.1 147.9C919.2 148.1 919.5 148.1 919.6 147.9C924.1 141.5 931.2 138.6 938 138.6C948.3 138.6 956.3 145.1 956.3 159.8V193.7C956.3 194.6 955.6 195.4 954.6 195.4H942.6C941.7 195.4 940.9 194.7 940.9 193.7V161.5C940.9 154.4 937.7 151.2 932.2 151.2C926.3 151.2 921.5 155 921.5 162.6V193.8C921.5 194.7 920.8 195.5 919.8 195.5H907.8C906.9 195.5 906.1 194.8 906.1 193.8V161.6C906.1 154.5 902.8 151.3 897.4 151.3C891.5 151.3 886.7 155.1 886.7 162.7V193.9C886.7 194.8 886 195.6 885 195.6H873C872.1 195.6 871.3 194.9 871.3 193.9V141.7C871.3 140.7 872.1 140 873 140Z" fill="white" fill-opacity="0.8"/>
<path d="M381.9 233.9H396.5C397.2 233.9 397.9 234.4 398.1 235.1L415.5 291.4C415.6 291.7 415.9 291.7 416 291.4L433.4 235.1C433.6 234.4 434.3 233.9 435 233.9H447.6C448.7 233.9 449.5 235 449.2 236.1L425 308.7C424.8 309.4 424.1 309.8 423.4 309.8H406C405.3 309.8 404.7 309.3 404.4 308.7L380.4 236C380 235 380.8 233.9 381.9 233.9Z" fill="white" fill-opacity="0.8"/>
<path d="M445.8 282.7V281.8C445.8 264.3 458.2 252.9 474.4 252.9C488.7 252.9 501.5 261.3 501.5 281.2V283.8C501.5 284.7 500.8 285.5 499.8 285.5H462.6C461.9 285.5 461.4 286.1 461.5 286.7C462.3 295.2 467.2 300 475.2 300C481.7 300 485.2 297.4 486.5 293.4C486.7 292.7 487.4 292.3 488.1 292.3H499.3C500.4 292.3 501.2 293.3 500.9 294.4C498.4 305.1 489 311 474.7 311C458 311 445.8 300.5 445.8 282.7ZM485.3 276C486 276 486.5 275.4 486.4 274.8C485.5 267.2 481.4 263.6 474.4 263.6C467.9 263.6 463.4 267.7 461.9 274.7C461.8 275.4 462.3 276 463 276H485.3Z" fill="white" fill-opacity="0.8"/>
<path d="M510.6 254.3H522.7C523.6 254.3 524.4 255 524.4 256V262.1C524.4 262.4 524.8 262.5 524.9 262.2C527.9 257.1 533.7 253.1 542.5 253.1C553.4 253.1 561.2 259.7 561.2 274.6V308.3C561.2 309.2 560.5 310 559.5 310H547.4C546.5 310 545.7 309.3 545.7 308.3V276.8C545.7 269.3 542.7 265.6 535.9 265.6C529.3 265.6 524.3 269.6 524.3 277.8V308.2C524.3 309.1 523.6 309.9 522.6 309.9H510.5C509.6 309.9 508.8 309.2 508.8 308.2V256C508.9 255 509.7 254.3 510.6 254.3Z" fill="white" fill-opacity="0.8"/>
<path d="M573.9 293.399V265.499C573.9 265.299 573.8 265.199 573.6 265.199H568.4C567.5 265.199 566.7 264.499 566.7 263.499V255.899C566.7 254.999 567.4 254.199 568.4 254.199H573.9V243.899C573.9 242.999 574.6 242.199 575.6 242.199H587.6C588.5 242.199 589.3 242.899 589.3 243.899V254.199H599.3C600.2 254.199 601 254.899 601 255.899V263.499C601 264.399 600.3 265.199 599.3 265.199H589.5C589.3 265.199 589.2 265.299 589.2 265.499V291.999C589.2 296.499 591.4 298.599 595.4 298.599C596.8 298.599 598 298.499 599.2 298.199C600.3 297.999 601.3 298.699 601.3 299.799V308.199C601.3 308.899 600.8 309.599 600.1 309.799C598.1 310.399 595.4 310.899 591.9 310.899C580.2 310.899 573.9 304.899 573.9 293.399Z" fill="white" fill-opacity="0.8"/>
<path d="M608.6 290.101V256.001C608.6 255.101 609.3 254.301 610.3 254.301H622.3C623.2 254.301 624 255.001 624 256.001V288.001C624 295.501 627.1 299.201 633.7 299.201C640.2 299.201 645.3 295.201 645.3 287.001V256.001C645.3 255.101 646 254.301 647 254.301H659C659.9 254.301 660.7 255.001 660.7 256.001V308.201C660.7 309.101 660 309.901 659 309.901H647C646.1 309.901 645.3 309.201 645.3 308.201V301.101C642.4 306.701 636.8 311.001 627.7 311.001C616.7 311.001 608.6 304.601 608.6 290.101Z" fill="white" fill-opacity="0.8"/>
<path d="M673 254.3H685.1C686 254.3 686.8 255 686.8 256V265C690.1 258.1 695 254.2 703 253.6C704 253.5 704.8 254.3 704.8 255.3V266.3C704.8 267.2 704.1 267.9 703.2 268C692.8 268.3 686.9 272.1 686.9 282.2V308.4C686.9 309.3 686.2 310.1 685.2 310.1H673C672.1 310.1 671.3 309.4 671.3 308.4V256.2C671.4 255 672.1 254.3 673 254.3Z" fill="white" fill-opacity="0.8"/>
<path d="M707.8 282.7V281.8C707.8 264.3 720.2 252.9 736.4 252.9C750.7 252.9 763.5 261.3 763.5 281.2V283.8C763.5 284.7 762.8 285.5 761.8 285.5H724.6C723.9 285.5 723.4 286.1 723.5 286.7C724.3 295.2 729.2 300 737.2 300C743.7 300 747.2 297.4 748.5 293.4C748.7 292.7 749.4 292.3 750.1 292.3H761.3C762.4 292.3 763.2 293.3 762.9 294.4C760.4 305.1 751 311 736.7 311C720 311 707.8 300.5 707.8 282.7ZM747.3 276C748 276 748.5 275.4 748.4 274.8C747.5 267.2 743.4 263.6 736.4 263.6C729.9 263.6 725.4 267.7 723.9 274.7C723.8 275.4 724.3 276 725 276H747.3Z" fill="white" fill-opacity="0.8"/>
<path d="M769.2 292.4H780.3C781.1 292.4 781.8 292.9 781.9 293.7C782.8 297.9 785.4 300.3 791.5 300.3C797.4 300.3 800.2 298.1 800.2 294.2C800.2 290.4 796.9 288.8 788.9 287.6C774.1 285.4 768.4 281.1 768.4 270.3C768.4 258.7 779 253 790.4 253C802.1 253 811 257 813.1 268.2C813.3 269.2 812.5 270.2 811.5 270.2H800.6C799.9 270.2 799.2 269.7 799 269C797.9 265.2 795.4 263.5 790.6 263.5C785.6 263.5 782.7 265.8 782.7 269.2C782.7 272.7 785.4 274.1 793.4 275.3C807.3 277.3 815 280.8 815 292.7C815 304.7 806.3 311 791.6 311C777.4 311 768.9 305.1 767.5 294.3C767.5 293.3 768.2 292.4 769.2 292.4Z" fill="white" fill-opacity="0.8"/>
<path d="M100 104.9H4.9C2.2 104.9 0 102.7 0 100V4.9C0 2.2 2.2 0 4.9 0H100C102.7 0 104.9 2.2 104.9 4.9V100C104.9 102.7 102.7 104.9 100 104.9Z" fill="white" fill-opacity="0.8"/>
<path d="M305.6 105.099H210.5C207.8 105.099 205.6 102.899 205.6 100.199V5.09922C205.6 2.39922 207.8 0.199219 210.5 0.199219H305.6C308.3 0.199219 310.5 2.39922 310.5 5.09922V100.199C310.5 102.899 308.3 105.099 305.6 105.099Z" fill="white" fill-opacity="0.8"/>
<path d="M100 310.9H4.9C2.2 310.9 0 308.7 0 306V210.9C0 208.2 2.2 206 4.9 206H100C102.7 206 104.9 208.2 104.9 210.9V306C104.9 308.7 102.7 310.9 100 310.9Z" fill="white" fill-opacity="0.8"/>
<path d="M305.6 311H210.5C207.8 311 205.6 308.8 205.6 306.1V211C205.6 208.3 207.8 206.1 210.5 206.1H305.6C308.3 206.1 310.5 208.3 310.5 211V306.1C310.5 308.8 308.3 311 305.6 311Z" fill="white" fill-opacity="0.8"/>
<path d="M202.9 208.4H107.8C105.1 208.4 102.9 206.2 102.9 203.5V108.4C102.9 105.7 105.1 103.5 107.8 103.5H202.9C205.6 103.5 207.8 105.7 207.8 108.4V203.5C207.9 206.2 205.6 208.4 202.9 208.4Z" fill="white" fill-opacity="0.8"/>
</svg>
