<svg width="32" height="30" viewBox="0 0 32 30" fill="none" xmlns="http://www.w3.org/2000/svg">
<path fill-rule="evenodd" clip-rule="evenodd" d="M1.67092 22.7439C0.613072 20.9888 0 18.9212 0 16.7214C0 16.6372 0 16.541 0 16.4569L5.80616 16.1323L5.86626 17.9595L4.79639 18.8851L5.6018 19.6905C4.31555 20.6883 2.94515 21.7582 1.67092 22.7439Z" fill="#EF2727"/>
<path fill-rule="evenodd" clip-rule="evenodd" d="M7.42896 16.2045L11.432 15.9761L11.9008 16.1684C11.1915 16.7094 9.32828 18.1278 7.2246 19.7507L6.41919 18.9453L7.48906 18.0196L7.42896 16.2045Z" fill="#EF2727"/>
<path fill-rule="evenodd" clip-rule="evenodd" d="M2.33215 15.2185C2.36822 13.7038 2.69278 12.2613 3.24575 10.939L12.1413 14.6655L2.33215 15.2185Z" fill="#EF2727"/>
<path fill-rule="evenodd" clip-rule="evenodd" d="M5.18103 2.55999C5.72198 2.1633 6.28697 1.81469 6.88802 1.51416L9.14797 6.70724L6.52739 9.54421L2.15173 7.70499L3.54617 6.63512L3.32979 6.05811L4.08712 5.26472L4.96465 4.90409L5.87825 3.47359H5.18103V2.55999Z" fill="#EF2727"/>
<path fill-rule="evenodd" clip-rule="evenodd" d="M10.0375 8.0542L11.9368 12.4419L11.6363 12.6703L7.41687 10.8912L10.0375 8.0542Z" fill="#EF2727"/>
<path fill-rule="evenodd" clip-rule="evenodd" d="M29.3193 20.3036C28.6701 23.1045 27.0232 25.5207 24.7633 27.1436L22.1667 23.0324L20.628 22.275L20.1953 20.6161L19.1615 19.8228L17.9113 18.224L17.8271 17.5628L18.0315 17.5508L29.3193 20.3036Z" fill="#EF2727"/>
<path fill-rule="evenodd" clip-rule="evenodd" d="M21.3493 25.0037C20.051 25.9293 18.5123 26.5544 16.8534 26.7468L15.6393 17.5747L16.6851 18.909L17.5506 19.5702L17.9113 20.9526L19.1855 21.5777L21.3493 25.0037Z" fill="#EF2727"/>
<path fill-rule="evenodd" clip-rule="evenodd" d="M23.0323 14.4615L17.7911 15.4232L21.3373 13.7402L22.6116 13.9205L23.0323 14.4615Z" fill="#EF2727"/>
<path fill-rule="evenodd" clip-rule="evenodd" d="M19.7626 2.89697C20.9767 3.35377 22.0947 4.01493 23.0684 4.83236L18.7168 12.1892L18.3922 11.3357L18.272 10.939L18.5966 9.26812L17.9354 8.81132L19.7626 2.89697Z" fill="#EF2727"/>
<path fill-rule="evenodd" clip-rule="evenodd" d="M24.5708 4.48389C25.5085 5.26525 26.3259 6.19087 26.9871 7.2367L21.2651 11.2397L20.2192 11.8408L24.5708 4.48389Z" fill="#EF2727"/>
<path fill-rule="evenodd" clip-rule="evenodd" d="M17.3946 14.9783L16.7094 15.4591L15.2428 15.7236L16.5651 11.4922L17.2263 11.937L16.9137 13.6079L17.0339 14.0046L17.3946 14.9783Z" fill="#EF2727"/>
<path fill-rule="evenodd" clip-rule="evenodd" d="M30.5094 6.77979C31.1946 7.86168 31.6995 9.05176 32 10.338L28.7784 10.9391L28.3576 10.3981L27.0834 10.2178L23.5372 11.9007L23.0924 11.9849L30.5094 6.77979Z" fill="#EF2727"/>
<path fill-rule="evenodd" clip-rule="evenodd" d="M14.894 17.2261L16.2885 27.7926C15.8798 27.8406 15.459 27.8647 15.0383 27.8647C13.2231 27.8647 11.5161 27.4079 10.0255 26.6025L14.3891 17.2621L14.894 17.2261Z" fill="#EF2727"/>
<path fill-rule="evenodd" clip-rule="evenodd" d="M1.99536 25.3043C5.80603 22.3351 10.1817 18.4644 10.1817 18.4644V18.9332L7.87364 21.5177L8.48672 24.4027L5.91422 29.9084C5.5055 29.692 5.10881 29.4396 4.73616 29.1751C4.73616 28.9707 4.74818 28.574 4.74818 28.574V28.1413L4.41159 27.6364L4.7602 26.7829L4.32744 26.819L3.49799 27.0353L3.22151 25.9174H2.12759L1.99536 25.3043Z" fill="#EF2727"/>
<path fill-rule="evenodd" clip-rule="evenodd" d="M13.4155 17.5386L13.4997 17.7309L11.2517 22.5393L9.12402 21.3372L11.7807 20.1952L11.7206 19.1855L13.4155 17.5386Z" fill="#EF2727"/>
<path fill-rule="evenodd" clip-rule="evenodd" d="M30.0645 12.9585C30.2568 13.812 30.365 14.7015 30.365 15.6031C30.365 16.5047 30.2568 17.3822 30.0645 18.2237L25.2921 17.0577L25.6047 15.4348L24.0059 14.8578L23.8496 14.1005L30.0645 12.9585Z" fill="#EF2727"/>
<path fill-rule="evenodd" clip-rule="evenodd" d="M22.9361 18.152L16.4207 16.5652L17.178 16.5051L17.3463 15.9521L21.5055 15.1948L21.6618 15.9521L23.2486 16.5292L22.9361 18.152Z" fill="#EF2727"/>
<path fill-rule="evenodd" clip-rule="evenodd" d="M15.3267 0C16.7212 0 18.0555 0.252442 19.2937 0.721262L16.0961 10.9992L15.2907 11.0593V8.41472L14.7377 8.33057V6.07062L12.069 5.18106L10.314 1.17806C11.8166 0.420736 13.5236 0 15.3267 0Z" fill="#EF2727"/>
<path fill-rule="evenodd" clip-rule="evenodd" d="M14.6416 14.4979L13.9924 14.558L11.4199 8.61963L14.0886 9.49716V11.7691L14.6416 11.8533V14.4979Z" fill="#EF2727"/>
</svg>
