{
  "accessors": [
    {
      "bufferView": 2,
      "componentType": 5126,
      "count": 21973,
      "max": [
        121.53497314453125,
        304.51568603515625,
        84.34115600585938
      ],
      "min": [
        -121.53497314453125,
        -373.7863464355469,
        -60.1984977722168
      ],
      "type": "VEC3"
    },
    {
      "bufferView": 2,
      "byteOffset": 263676,
      "componentType": 5126,
      "count": 21973,
      "max": [
        1.0,
        1.0,
        1.0
      ],
      "min": [
        -1.0,
        -1.0,
        -1.0
      ],
      "type": "VEC3"
    },
    {
      "bufferView": 3,
      "componentType": 5126,
      "count": 21973,
      "max": [
        1.0,
        1.0,
        1.0,
        1.0
      ],
      "min": [
        -1.0,
        -1.0,
        -1.0,
        -1.0
      ],
      "type": "VEC4"
    },
    {
      "bufferView": 1,
      "componentType": 5126,
      "count": 21973,
      "max": [
        0.9974079728126526,
        0.9951639771461487
      ],
      "min": [
        0.003746999893337488,
        0.005673999898135662
      ],
      "type": "VEC2"
    },
    {
      "bufferView": 0,
      "componentType": 5125,
      "count": 39414,
      "type": "SCALAR"
    },
    {
      "bufferView": 2,
      "byteOffset": 527352,
      "componentType": 5126,
      "count": 65532,
      "max": [
        93.232666015625,
        158.78311157226563,
        68.35396575927734
      ],
      "min": [
        -93.232666015625,
        -325.8191223144531,
        -66.92152404785156
      ],
      "type": "VEC3"
    },
    {
      "bufferView": 2,
      "byteOffset": 1313736,
      "componentType": 5126,
      "count": 65532,
      "max": [
        1.0,
        1.0,
        1.0
      ],
      "min": [
        -1.0,
        -1.0,
        -1.0
      ],
      "type": "VEC3"
    },
    {
      "bufferView": 3,
      "byteOffset": 351568,
      "componentType": 5126,
      "count": 65532,
      "max": [
        1.0,
        1.0,
        1.0,
        1.0
      ],
      "min": [
        -1.0,
        -1.0,
        -1.0,
        -1.0
      ],
      "type": "VEC4"
    },
    {
      "bufferView": 1,
      "byteOffset": 175784,
      "componentType": 5126,
      "count": 65532,
      "max": [
        0.9982330203056335,
        0.9980779886245728
      ],
      "min": [
        0.0019529999699443579,
        0.0015579999890178442
      ],
      "type": "VEC2"
    },
    {
      "bufferView": 0,
      "byteOffset": 157656,
      "componentType": 5125,
      "count": 104589,
      "type": "SCALAR"
    },
    {
      "bufferView": 2,
      "byteOffset": 2100120,
      "componentType": 5126,
      "count": 2340,
      "max": [
        -77.22697448730469,
        77.45063781738281,
        -9.076972007751465
      ],
      "min": [
        -93.23265075683594,
        6.425004005432129,
        -15.816750526428223
      ],
      "type": "VEC3"
    },
    {
      "bufferView": 2,
      "byteOffset": 2128200,
      "componentType": 5126,
      "count": 2340,
      "max": [
        1.0,
        1.0,
        1.0
      ],
      "min": [
        -1.0,
        -1.0,
        -1.0
      ],
      "type": "VEC3"
    },
    {
      "bufferView": 3,
      "byteOffset": 1400080,
      "componentType": 5126,
      "count": 2340,
      "max": [
        1.0,
        1.0,
        1.0,
        1.0
      ],
      "min": [
        -1.0,
        -1.0,
        -1.0,
        -1.0
      ],
      "type": "VEC4"
    },
    {
      "bufferView": 1,
      "byteOffset": 700040,
      "componentType": 5126,
      "count": 2340,
      "max": [
        0.8651649951934814,
        0.7098860144615173
      ],
      "min": [
        0.4826729893684387,
        0.0015579999890178442
      ],
      "type": "VEC2"
    },
    {
      "bufferView": 0,
      "byteOffset": 576012,
      "componentType": 5125,
      "count": 3741,
      "type": "SCALAR"
    }
  ],
  "asset": {
    "extras": {
      "author": "MSGDI (https://sketchfab.com/MSGDI)",
      "license": "SKETCHFAB Standard (https://sketchfab.com/licenses)",
      "source": "https://sketchfab.com/3d-models/scifi-battlecruiser-liberty-a6ccbd50c3c64e84ba17f6fc869ec7aa",
      "title": "Scifi Battlecruiser Liberty"
    },
    "generator": "Sketchfab-12.68.0",
    "version": "2.0"
  },
  "bufferViews": [
    {
      "buffer": 0,
      "byteLength": 590976,
      "name": "floatBufferViews",
      "target": 34963
    },
    {
      "buffer": 0,
      "byteLength": 718760,
      "byteOffset": 590976,
      "byteStride": 8,
      "name": "floatBufferViews",
      "target": 34962
    },
    {
      "buffer": 0,
      "byteLength": 2156280,
      "byteOffset": 1309736,
      "byteStride": 12,
      "name": "floatBufferViews",
      "target": 34962
    },
    {
      "buffer": 0,
      "byteLength": 1437520,
      "byteOffset": 3466016,
      "byteStride": 16,
      "name": "floatBufferViews",
      "target": 34962
    }
  ],
  "buffers": [
    {
      "byteLength": 4903536,
      "uri": "scene.bin"
    }
  ],
  "images": [
    {
      "uri": "textures/ScifiBattlecruiserLibertyGrey_baseColor.png"
    },
    {
      "uri": "textures/ScifiBattlecruiserLibertyGrey_metallicRoughness.png"
    },
    {
      "uri": "textures/ScifiBattlecruiserLibertyGrey_emissive.png"
    },
    {
      "uri": "textures/ScifiBattlecruiserLibertyGrey_normal.png"
    },
    {
      "uri": "textures/ScifiSpaceshipStandardWeapons_baseColor.png"
    },
    {
      "uri": "textures/ScifiSpaceshipStandardWeapons_metallicRoughness.png"
    },
    {
      "uri": "textures/ScifiSpaceshipStandardWeapons_emissive.png"
    },
    {
      "uri": "textures/ScifiSpaceshipStandardWeapons_normal.png"
    }
  ],
  "materials": [
    {
      "doubleSided": true,
      "emissiveFactor": [
        1.0,
        1.0,
        1.0
      ],
      "emissiveTexture": {
        "index": 2
      },
      "name": "ScifiBattlecruiserLibertyGrey",
      "normalTexture": {
        "index": 3
      },
      "occlusionTexture": {
        "index": 1
      },
      "pbrMetallicRoughness": {
        "baseColorTexture": {
          "index": 0
        },
        "metallicRoughnessTexture": {
          "index": 1
        }
      }
    },
    {
      "doubleSided": true,
      "emissiveFactor": [
        1.0,
        1.0,
        1.0
      ],
      "emissiveTexture": {
        "index": 6
      },
      "name": "ScifiSpaceshipStandardWeapons",
      "normalTexture": {
        "index": 7
      },
      "occlusionTexture": {
        "index": 5
      },
      "pbrMetallicRoughness": {
        "baseColorTexture": {
          "index": 4
        },
        "metallicRoughnessTexture": {
          "index": 5
        }
      }
    }
  ],
  "meshes": [
    {
      "name": "ScifiBattlecruiserLibertyHull_002_ScifiBattlecruiserLibertyGrey_0",
      "primitives": [
        {
          "attributes": {
            "NORMAL": 1,
            "POSITION": 0,
            "TANGENT": 2,
            "TEXCOORD_0": 3
          },
          "indices": 4,
          "material": 0,
          "mode": 4
        }
      ]
    },
    {
      "name": "ScifiBattlecruiserLibertyHull_002_ScifiSpaceshipStandardWeapons_0",
      "primitives": [
        {
          "attributes": {
            "NORMAL": 6,
            "POSITION": 5,
            "TANGENT": 7,
            "TEXCOORD_0": 8
          },
          "indices": 9,
          "material": 1,
          "mode": 4
        }
      ]
    },
    {
      "name": "ScifiBattlecruiserLibertyHull_002_ScifiSpaceshipStandardWeapons_0",
      "primitives": [
        {
          "attributes": {
            "NORMAL": 11,
            "POSITION": 10,
            "TANGENT": 12,
            "TEXCOORD_0": 13
          },
          "indices": 14,
          "material": 1,
          "mode": 4
        }
      ]
    }
  ],
  "nodes": [
    {
      "children": [
        1
      ],
      "matrix": [
        1.0,
        0.0,
        0.0,
        0.0,
        0.0,
        2.220446049250313e-16,
        -1.0,
        0.0,
        0.0,
        1.0,
        2.220446049250313e-16,
        0.0,
        0.0,
        0.0,
        0.0,
        1.0
      ],
      "name": "Sketchfab_model"
    },
    {
      "children": [
        2
      ],
      "matrix": [
        1.0,
        0.0,
        0.0,
        0.0,
        0.0,
        0.0,
        1.0,
        0.0,
        0.0,
        -1.0,
        0.0,
        0.0,
        0.0,
        0.0,
        0.0,
        1.0
      ],
      "name": "1eef409aea0e4ba68a81b8207d8ede08.fbx"
    },
    {
      "children": [
        3
      ],
      "name": "RootNode"
    },
    {
      "children": [
        4,
        5,
        6
      ],
      "matrix": [
        1.0,
        0.0,
        0.0,
        0.0,
        0.0,
        -1.6291842253046696e-07,
        -0.9999999999999868,
        0.0,
        0.0,
        0.9999999999999868,
        -1.6291842253046696e-07,
        0.0,
        0.0,
        0.0,
        0.0,
        1.0
      ],
      "name": "ScifiBattlecruiserLibertyHull_002"
    },
    {
      "mesh": 0,
      "name": "ScifiBattlecruiserLibertyHull_002_ScifiBattlecruiserLibertyGrey_0"
    },
    {
      "mesh": 1,
      "name": "ScifiBattlecruiserLibertyHull_002_ScifiSpaceshipStandardWeapons_0"
    },
    {
      "mesh": 2,
      "name": "ScifiBattlecruiserLibertyHull_002_ScifiSpaceshipStandardWeapons_0"
    }
  ],
  "samplers": [
    {
      "magFilter": 9729,
      "minFilter": 9987,
      "wrapS": 10497,
      "wrapT": 10497
    }
  ],
  "scene": 0,
  "scenes": [
    {
      "name": "Sketchfab_Scene",
      "nodes": [
        0
      ]
    }
  ],
  "textures": [
    {
      "sampler": 0,
      "source": 0
    },
    {
      "sampler": 0,
      "source": 1
    },
    {
      "sampler": 0,
      "source": 2
    },
    {
      "sampler": 0,
      "source": 3
    },
    {
      "sampler": 0,
      "source": 4
    },
    {
      "sampler": 0,
      "source": 5
    },
    {
      "sampler": 0,
      "source": 6
    },
    {
      "sampler": 0,
      "source": 7
    }
  ]
}
