<svg width="47" height="48" viewBox="0 0 47 48" fill="none" xmlns="http://www.w3.org/2000/svg">
<path d="M22.4659 0.000100944V10.2233C23.2727 10.2501 24.0822 10.2502 24.8899 10.2233V0H22.4659V0.000100944ZM15.1783 11.151V14.2631H32.1778V11.151C26.5466 12.4368 20.7544 12.424 15.1783 11.151ZM0.000100944 14.6924L0.943739 18.4894L14.2946 19.3068L15.2446 19.3635L15.1784 20.3135C14.9164 24.1593 15.7094 28.2595 17.7603 31.6699L18.5304 16.8765L0 14.6924H0.000100944ZM46.7816 14.6924L28.8197 16.8104L29.5456 30.7324C31.2077 27.5232 31.8419 23.8137 31.6034 20.3136L31.5403 19.3637L32.4872 19.3069L45.8381 18.4895L46.7817 14.6924H46.7816ZM20.4588 16.1506L19.3824 36.8176V41.2805L23.8643 48L28.2103 41.4005L26.8973 16.1506H24.6218V41.4951H22.7343V16.1505H20.4588V16.1506ZM1.39803 20.4085C1.75355 21.5431 2.21037 22.7341 2.74587 23.937L13.3003 23.0722C13.2642 22.4238 13.2547 21.7759 13.272 21.1342L1.39814 20.4085H1.39803ZM45.3835 20.4085L33.5097 21.1342C33.5271 21.7759 33.5175 22.4238 33.4814 23.0722L44.0359 23.937C44.5712 22.7341 45.0282 21.5431 45.3834 20.4084L45.3835 20.4085ZM13.4834 24.9534L3.61376 25.7614C4.1638 26.8499 4.76778 27.9301 5.40973 28.9742L13.9001 27.128C13.7248 26.4091 13.5849 25.6814 13.4833 24.9534H13.4834ZM33.2982 24.9534C33.1969 25.6813 33.0599 26.4092 32.8849 27.128L41.3719 28.9742C42.014 27.9301 42.618 26.8499 43.1679 25.7614L33.2982 24.9534ZM14.4274 28.9459L6.50497 30.6693C7.18106 31.6591 7.88563 32.5933 8.60071 33.4436L15.1594 30.783C14.8842 30.1816 14.64 29.5687 14.4272 28.946L14.4274 28.9459ZM32.3548 28.9459C32.142 29.5687 31.8976 30.1814 31.6225 30.7829L38.1811 33.4436C38.8962 32.5936 39.6008 31.6593 40.2769 30.6694L32.3547 28.946L32.3548 28.9459Z" fill="black"/>
</svg>
