<svg width="48" height="40" viewBox="0 0 48 40" fill="none" xmlns="http://www.w3.org/2000/svg">
<path d="M19.2 0L17.6 6.4L7.7432 7.8082L24 11.8722L40.2568 7.8082L30.4 6.4L28.8 0L26.0732 1.818L24.873 6.6183H23.127L21.9268 1.8179L19.2 0ZM5.3379 9.062L0 14.4001L4.8 20.8001L7.377 18.2231L10.0389 10.2374L5.3379 9.062ZM42.6621 9.062L37.9611 10.2373L40.6231 18.223L43.2 20.8L48 14.4L42.6621 9.062ZM11.7904 10.6752L9.7781 16.7121L11.1591 22.2367L23.1 28.8705V13.5027L11.7904 10.6752ZM36.2096 10.6752L24.9 13.5027V28.8705L36.8408 22.2367L38.2218 16.7121L36.2096 10.6752ZM12.8 25.2072V30.8386L23.1 33.9013V30.9294L12.8 25.2072ZM35.2 25.2072L24.9 30.9295V33.9013L35.2 30.8386V25.2072ZM12.8 32.7612V38.4L23.1 39.8714V35.8237L12.8 32.7612ZM35.2 32.7612L24.9 35.8237V39.8715L35.2 38.4001V32.7612Z" fill="black"/>
</svg>
