<svg width="98" height="98" viewBox="0 0 98 98" fill="none" xmlns="http://www.w3.org/2000/svg">
<path d="M6.16093 0C2.21886 0.164762 -0.0621736 2.31012 0.00129014 6.15985L4.02229 12.4208C4.92339 12.1741 5.9262 11.6401 6.92046 10.9288L15.5601 23.1201C12.0985 27.3571 9.20191 32.1596 6.87246 37.5288L12.273 42.9298C14.5664 38.1293 17.2838 33.8117 20.3927 29.9392L63.2755 90.4484L97.2056 97.2043L90.4497 63.274L29.9253 20.38C33.9745 17.1035 38.4363 14.296 43.2795 11.9226L37.8784 6.52212C32.3444 8.92296 27.4146 11.9279 23.0834 15.5315L10.9289 6.91734C11.6292 5.9363 12.1619 4.93715 12.4223 4.02039L6.16134 0H6.16093ZM87.6956 17.683V17.6846L87.6962 17.683H87.6958H87.6956ZM87.6956 17.6846L81.9944 43.1047L76.8856 26.7113L73.2028 41.0857L67.7389 30.9884L67.6201 42.7491L93.7549 61.3997L96.8435 79.0998L96.6059 41.0857L89.597 49.1637L87.696 17.6848L87.6956 17.6846ZM26.4795 23.376L71.682 63.3191L76.8984 76.8967L63.3208 71.6803L23.3795 26.48C24.3783 25.4064 25.4126 24.3727 26.4791 23.376H26.4795ZM33.0506 63.3V63.3008H33.0517L33.0506 63.3ZM33.0517 63.3008L38.7528 67.9335L31.3874 68.765L43.1485 72.6851L21.6469 73.517L45.0492 79.1006L24.4983 82.9017L50.3956 88.1286L36.7338 97.0385L79.1434 97.3949L61.4433 94.3061L40.1789 63.6572L33.0521 63.3008H33.0517Z" fill="black"/>
</svg>
