<svg width="24" height="23" viewBox="0 0 24 23" fill="none" xmlns="http://www.w3.org/2000/svg">
<path d="M14.7333 0L13.5709 0.538583L12.0782 6.75695L15.1519 1.09779L14.7334 0H14.7333ZM2.01236 1.23349C2.59097 5.1221 4.46014 8.38139 7.07613 11.1272C7.79045 10.6438 8.5118 10.1475 9.23521 9.64102C8.11539 8.2605 7.32217 6.80032 7.03191 5.2802C5.30264 3.94122 3.61456 2.58243 2.01241 1.23354L2.01236 1.23349ZM21.7478 1.23511C20.1851 2.55114 18.5406 3.87688 16.856 5.18543C16.3337 8.12873 13.9201 10.8499 10.8809 13.2027C7.57377 15.7629 3.4734 17.8998 0.000101126 19.3389L0 20.9957C4.73332 19.2706 9.88363 16.8826 13.994 13.5865C17.9887 10.3832 20.9855 6.35574 21.7478 1.23516V1.23511ZM9.8117 1.70738L9.38209 3.11313L11.4386 6.80578L11.0911 2.49398L9.8117 1.70733V1.70738ZM15.6083 6.14569C10.2895 10.2018 4.67252 14.0123 0.000101126 16.6932V18.3154C3.33172 16.9046 7.20648 14.8527 10.3029 12.4556C12.8215 10.506 14.7922 8.3357 15.6084 6.14569H15.6083ZM8.30174 6.25461C8.67323 7.20936 9.26357 8.15906 10.0202 9.08818C10.3755 8.83648 10.7306 8.58124 11.0863 8.32529C10.1541 7.64519 9.22318 6.95457 8.30174 6.25456V6.25461ZM16.8229 12.3372C16.3391 12.816 15.8333 13.2767 15.3114 13.7223C18.0869 15.6073 21.2364 17.2177 24 18.3802V16.8087C21.7832 15.5458 19.3449 14.0223 16.8229 12.3372ZM14.5533 14.3493C13.9644 14.8204 13.3556 15.2719 12.7322 15.7061C16.2867 17.9874 20.2798 19.7382 23.9999 21.0826V19.4036C21.0251 18.1793 17.576 16.4354 14.5532 14.3493H14.5533ZM11.5902 16.9792L9.25573 20.9342L9.65062 22.1266L11.0532 21.5533L11.5902 16.9792V16.9792ZM12.391 17.0203L14.9876 22.3083L16.8309 22.8279L16.6523 21.2122L12.391 17.0203H12.391Z" fill="black"/>
</svg>
