<svg width="19" height="24" viewBox="0 0 19 24" fill="none" xmlns="http://www.w3.org/2000/svg">
<path d="M9.37009 0C5.25525 0 -2.32888 7.88441 0.694054 15.2042C1.09846 16.4831 2.10088 17.7519 3.17762 19.1016C4.41105 20.6485 5.78604 22.2964 6.65045 24H7.68675C6.77178 21.9881 5.23503 20.1632 3.91566 18.5102C2.53056 16.7763 1.45232 15.2143 1.45232 14.0668C1.45737 13.6068 1.56504 13.1518 1.73186 12.7373C2.89453 9.63346 7.49465 6.68635 9.23865 5.91293L9.42064 5.81183L9.61779 5.87754C12.6963 6.93405 16.154 9.24928 17.4026 12.7373C17.6099 13.3287 17.7009 13.6472 17.6857 14.1173C17.6604 14.916 16.4472 16.8824 14.9054 18.6012C13.4344 20.239 11.751 22.0235 10.8613 23.9949H11.8976C12.7469 22.3672 14.2331 20.7597 15.603 19.2331C16.7758 17.939 17.8929 16.7055 18.3782 15.4519C21.0524 9.18356 13.3636 0 9.37009 0V0ZM9.41053 6.84812C7.45421 7.93496 5.10865 9.48687 3.6629 11.3067C4.15324 15.5024 6.6454 18.6922 9.64306 18.6922C12.6357 18.6922 15.1177 15.5226 15.6182 11.3471C14.1572 9.21895 11.6752 7.66198 9.41053 6.84812V6.84812ZM6.46342 11.0438H6.58474C7.24695 11.0489 7.90411 11.1803 8.56127 11.4179C7.71202 13.4703 5.57878 13.541 4.61326 11.4179C5.22998 11.1753 5.8467 11.0539 6.46342 11.0438ZM12.7772 11.0438C13.4344 11.0388 14.0915 11.1601 14.7537 11.4179C13.7832 13.541 11.655 13.4703 10.8007 11.4179C11.4629 11.1803 12.12 11.0489 12.7772 11.0438V11.0438Z" fill="black"/>
</svg>
