<svg width="22" height="23" viewBox="0 0 22 23" fill="none" xmlns="http://www.w3.org/2000/svg">
<path fill-rule="evenodd" clip-rule="evenodd" d="M9.42445 9.74385C9.81891 9.97146 10.379 10.1021 10.9612 10.1021C11.5435 10.1021 12.1036 9.97146 12.4981 9.74362L19.6076 5.6391C19.9137 5.46239 20.0895 5.24819 20.0895 5.05096C20.0892 4.85425 19.9137 4.63979 19.6076 4.46334L12.4981 0.358267C12.1036 0.130649 11.5435 0 10.9612 0C10.379 0 9.81891 0.130612 9.42445 0.358489L2.31486 4.4633C2.00876 4.63976 1.83331 4.85421 1.83305 5.05093C1.83305 5.24816 2.00876 5.46236 2.31486 5.63907L9.42445 9.74385ZM9.33801 22.1014C9.53502 22.215 9.72134 22.275 9.8768 22.275C10.0143 22.275 10.1148 22.23 10.1928 22.1328C10.2984 22.0014 10.3564 21.7814 10.3564 21.5132V13.3039C10.3564 12.342 9.65251 11.1229 8.81956 10.6419L1.70998 6.53734C1.51275 6.4234 1.32639 6.36314 1.17119 6.36314C0.738246 6.36314 0.691406 6.89609 0.691406 7.12522V15.3343C0.691406 16.2964 1.39526 17.5155 2.22847 17.9963L9.33801 22.1014ZM11.4797 21.5132C11.4797 21.7424 11.5266 22.275 11.9595 22.275C12.1147 22.275 12.3011 22.215 12.4981 22.1011L19.6076 17.9963C20.4408 17.5155 21.1447 16.2964 21.1447 15.3343V7.12522C21.1447 6.89609 21.0979 6.36314 20.6649 6.36314C20.5097 6.36314 20.3234 6.4234 20.1261 6.53734L13.0165 10.6416C12.1836 11.1229 11.4797 12.342 11.4797 13.3039V21.5132ZM9.75124 5.05131C9.75124 5.44932 10.3054 5.78555 10.9612 5.78555C11.6169 5.78555 12.1712 5.44928 12.1712 5.05131C12.1712 4.65334 11.6169 4.31685 10.9612 4.31685C10.3054 4.31685 9.75124 4.6533 9.75124 5.05131ZM1.48782 15.5293C1.48782 16.113 1.82405 16.606 2.22206 16.606C2.62007 16.606 2.9563 16.113 2.9563 15.5293C2.9563 14.9457 2.62007 14.4525 2.22206 14.4525C1.82405 14.4525 1.48782 14.9457 1.48782 15.5293ZM18.7068 15.5293C18.7068 16.113 19.0431 16.606 19.4411 16.606C19.839 16.606 20.1753 16.113 20.1753 15.5293C20.1753 14.9457 19.8391 14.4525 19.4411 14.4525C19.0431 14.4525 18.7068 14.9457 18.7068 15.5293ZM1.48782 9.33957C1.48782 9.92319 1.82405 10.4162 2.22206 10.4162C2.62007 10.4162 2.9563 9.92319 2.9563 9.33957C2.9563 8.75594 2.62007 8.2627 2.22206 8.2627C1.82405 8.2627 1.48782 8.75597 1.48782 9.33957ZM7.59133 13.3256C7.59133 13.9092 7.92756 14.4024 8.32557 14.4024C8.72358 14.4024 9.06007 13.9092 9.06003 13.3256C9.06003 12.7419 8.72358 12.2487 8.32557 12.2487C7.92756 12.2487 7.59133 12.742 7.59133 13.3256ZM12.7981 13.3256C12.7981 13.9092 13.1343 14.4024 13.5323 14.4024C13.9303 14.4024 14.2668 13.9092 14.2668 13.3256C14.2668 12.7419 13.9303 12.2487 13.5323 12.2487C13.1343 12.2487 12.7981 12.742 12.7981 13.3256ZM7.59133 19.04C7.59133 19.6237 7.92756 20.1169 8.32557 20.1169C8.72358 20.1169 9.06003 19.6237 9.06003 19.04C9.06003 18.4564 8.72358 17.9632 8.32557 17.9632C7.92756 17.9632 7.59133 18.4564 7.59133 19.04Z" fill="black"/>
</svg>
